<?xml version="1.0" standalone="no"?>
<!DOCTYPE svg PUBLIC "-//W3C//DTD SVG 20010904//EN"
 "http://www.w3.org/TR/2001/REC-SVG-20010904/DTD/svg10.dtd">
<svg version="1.0" xmlns="http://www.w3.org/2000/svg"
 width="200.000000pt" height="200.000000pt" viewBox="0 0 200.000000 200.000000"
 preserveAspectRatio="xMidYMid meet">

<g transform="translate(0.000000,200.000000) scale(0.100000,-0.100000)"
fill="#000000" stroke="none">
<path d="M868 1408 c-58 -56 -117 -136 -162 -222 l-36 -68 79 -87 c43 -47 88
-95 100 -105 27 -25 26 -37 -3 -65 -14 -13 -22 -29 -19 -37 3 -8 8 -12 12 -9
4 2 8 -1 8 -8 0 -7 23 -48 51 -90 29 -43 52 -81 52 -83 0 -7 43 -66 60 -84 9
-8 10 -11 3 -6 -10 6 -12 4 -7 -8 3 -9 9 -16 13 -16 4 0 39 33 78 73 72 74
120 141 167 235 l27 53 -101 109 c-114 123 -112 115 -37 189 35 34 43 46 34
56 -7 7 -18 10 -24 8 -7 -3 -13 0 -13 6 0 6 8 11 18 12 14 0 14 2 -3 8 -11 5
-23 4 -26 -1 -4 -6 -8 -6 -10 -1 -6 15 -166 133 -172 127 -3 -3 -10 4 -17 15
-6 12 -16 18 -22 15 -7 -5 -9 -1 -5 9 9 24 5 22 -45 -25z"/>
</g>
</svg>
